<svg width="785" height="589" viewBox="0 0 785 589" fill="none" xmlns="http://www.w3.org/2000/svg">
<line x1="590.183" y1="309.088" x2="495.889" y2="309.088" stroke="#474747" stroke-width="2" stroke-linecap="round" stroke-dasharray="3 6"/>
<ellipse cx="606.571" cy="309.245" rx="16.8087" ry="16.7867" transform="rotate(-90 606.571 309.245)" fill="#FA782E"/>
<line x1="1" y1="-1" x2="112.766" y2="-1" transform="matrix(-0.706643 -0.707571 0.706643 -0.707571 542.473 446.698)" stroke="#474747" stroke-width="2" stroke-linecap="round" stroke-dasharray="3 6"/>
<circle cx="16.7977" cy="16.7977" r="16.7977" transform="matrix(0.706643 -0.707571 0.706643 0.707571 527.042 459.357)" fill="#FA782E"/>
<line x1="1" y1="-1" x2="95.357" y2="-1" transform="matrix(0.706643 0.707571 0.706643 -0.707571 261.062 164.907)" stroke="#474747" stroke-width="2" stroke-linecap="round" stroke-dasharray="3 6"/>
<ellipse cx="16.7977" cy="16.7977" rx="16.7977" ry="16.7977" transform="matrix(0.706643 -0.707571 -0.706643 -0.707571 249.824 180.369)" fill="#FA782E"/>
<line x1="1" y1="-1" x2="111.158" y2="-1" transform="matrix(-0.706643 0.707571 -0.706643 -0.707571 522.626 170.243)" stroke="#474747" stroke-width="2" stroke-linecap="round" stroke-dasharray="3 6"/>
<ellipse cx="16.7977" cy="16.7977" rx="16.7977" ry="16.7977" transform="matrix(-0.706643 -0.70757 0.706643 -0.707571 533.864 185.705)" fill="#FA782E"/>
<line x1="1" y1="-1" x2="107.56" y2="-1" transform="matrix(0.706643 -0.707571 0.706643 0.707571 267.104 458.517)" stroke="#474747" stroke-width="2" stroke-linecap="round" stroke-dasharray="3 6"/>
<circle cx="16.7977" cy="16.7977" r="16.7977" transform="matrix(-0.706643 -0.707571 -0.706643 0.707571 278.049 465.665)" fill="#FA782E"/>
<line x1="1" y1="-1" x2="95.2938" y2="-1" transform="matrix(1 -7.9089e-08 -9.66351e-08 -1 193.193 308.088)" stroke="#474747" stroke-width="2" stroke-linecap="round" stroke-dasharray="3 6"/>
<ellipse cx="16.8087" cy="16.7867" rx="16.8087" ry="16.7867" transform="matrix(4.36541e-08 -1 -1 -4.37688e-08 195.99 326.054)" fill="#FA782E"/>
<line x1="394.32" y1="121.413" x2="394.32" y2="237.422" stroke="#474747" stroke-width="2" stroke-linecap="round" stroke-dasharray="3 6"/>
<ellipse cx="393.327" cy="102.809" rx="16.7867" ry="16.8087" transform="rotate(180 393.327 102.809)" fill="#FA782E"/>
<line x1="401.003" y1="502.073" x2="401.003" y2="382.704" stroke="#474747" stroke-width="2" stroke-linecap="round" stroke-dasharray="3 6"/>
<ellipse cx="16.7867" cy="16.8087" rx="16.7867" ry="16.8087" transform="matrix(-1 -8.75376e-08 -8.73081e-08 1 418.898 500.271)" fill="#FA782E"/>
<g filter="url(#filter0_d_851_10120)">
<path d="M474.665 248.519C469.916 248.519 465.406 249.029 460.897 249.898C457.771 215.297 428.852 188.12 393.56 188.12C358.268 188.12 329.244 215.297 326.118 249.898C321.744 249.014 317.114 248.519 312.35 248.519C275.059 248.519 244.772 278.965 244.772 316.596C244.772 354.227 275.059 384.674 312.47 384.674H474.65C512.061 384.674 542.348 354.227 542.348 316.596C542.348 278.965 512.061 248.519 474.65 248.519H474.665Z" fill="#FE5000"/>
</g>
<path d="M365.584 308.727L394.317 267.947C395.442 266.351 397.952 267.147 397.952 269.099V295.152C397.952 296.256 398.848 297.152 399.952 297.152H418.803C420.424 297.152 421.372 298.979 420.438 300.304L391.705 341.083C390.58 342.679 388.07 341.883 388.07 339.931V313.879C388.07 312.774 387.174 311.879 386.07 311.879H367.219C365.598 311.879 364.651 310.052 365.584 308.727Z" fill="white"/>
<defs>
<filter id="filter0_d_851_10120" x="220.772" y="172.12" width="345.576" height="244.554" filterUnits="userSpaceOnUse" color-interpolation-filters="sRGB">
<feFlood flood-opacity="0" result="BackgroundImageFix"/>
<feColorMatrix in="SourceAlpha" type="matrix" values="0 0 0 0 0 0 0 0 0 0 0 0 0 0 0 0 0 0 127 0" result="hardAlpha"/>
<feOffset dy="8"/>
<feGaussianBlur stdDeviation="12"/>
<feColorMatrix type="matrix" values="0 0 0 0 0 0 0 0 0 0 0 0 0 0 0 0 0 0 0.15 0"/>
<feBlend mode="normal" in2="BackgroundImageFix" result="effect1_dropShadow_851_10120"/>
<feBlend mode="normal" in="SourceGraphic" in2="effect1_dropShadow_851_10120" result="shape"/>
</filter>
</defs>
</svg>
