<?xml version="1.0" encoding="utf-8"?>
<!-- Generator: Adobe Illustrator 24.1.0, SVG Export Plug-In . SVG Version: 6.00 Build 0)  -->
<svg version="1.1" id="b5d1da7b-a9c6-4711-8d73-fa7937ec989e"
	 xmlns="http://www.w3.org/2000/svg" xmlns:xlink="http://www.w3.org/1999/xlink" x="0px" y="0px" viewBox="0 0 888 710.8"
	 style="enable-background:new 0 0 888 710.8;" xml:space="preserve">
<style type="text/css">
	.st0{fill:#CCCCCC;}
	.st1{fill:#2F2E41;}
	.st2{fill:#E99924;}
	.st3{fill:#FFFFFF;}
	.st4{fill:#E6E6E6;}
	.st5{fill:url(#SVGID_1_);}
	.st6{fill:url(#SVGID_2_);}
	.st7{fill:#6C63FF;}
	.st8{opacity:0.2;enable-background:new    ;}
	.st9{fill:url(#SVGID_3_);}
	.st10{fill:url(#SVGID_4_);}
	.st11{fill:url(#SVGID_5_);}
	.st12{fill:url(#SVGID_6_);}
</style>
<path class="st0" d="M444.9,604.8c-143.6,0-260.1-116.4-260.1-260.1S301.3,84.7,444.9,84.7C588.6,84.7,705,201.1,705,344.7
	c0,69-27.4,135.1-76.2,183.9C580.2,577.6,513.9,605,444.9,604.8z M444.9,86.7c-142.3,0-258.1,115.8-258.1,258.1
	s115.8,258.1,258.1,258.1S703,487,703,344.7S587.2,86.7,444.9,86.7L444.9,86.7z"/>
<rect x="346.5" y="381.8" class="st1" width="195" height="262"/>
<rect x="313" y="373.8" class="st2" width="262" height="104"/>
<rect x="313" y="489.8" class="st2" width="262" height="104"/>
<rect x="313" y="605.8" class="st2" width="262" height="104"/>
<rect x="313" y="417.9" class="st3" width="262" height="16"/>
<rect x="313" y="533.9" class="st3" width="262" height="16"/>
<rect x="313" y="649.9" class="st3" width="262" height="16"/>
<circle class="st3" cx="524" cy="388.8" r="6"/>
<circle class="st3" cx="545" cy="388.8" r="6"/>
<circle class="st3" cx="566" cy="388.8" r="6"/>
<circle class="st3" cx="524" cy="502.8" r="6"/>
<circle class="st3" cx="545" cy="502.8" r="6"/>
<circle class="st3" cx="566" cy="502.8" r="6"/>
<circle class="st3" cx="524" cy="616.8" r="6"/>
<circle class="st3" cx="545" cy="616.8" r="6"/>
<circle class="st3" cx="566" cy="616.8" r="6"/>
<path class="st4" d="M241.9,271.1v186c0,8.1-6.6,14.7-14.7,14.7h-72.3c-8.1,0-14.7-6.6-14.7-14.7v-186c0-8.1,6.6-14.7,14.7-14.7h8.8
	c-1.5,3.6,0.3,7.6,3.8,9.1c0.8,0.3,1.7,0.5,2.6,0.5h41.2c3.9,0,7-3.1,7-7c0-0.9-0.2-1.8-0.5-2.6h9.4
	C235.3,256.4,241.9,263,241.9,271.1z"/>
<rect x="145.1" y="291.9" class="st3" width="92" height="128"/>
<rect x="171.2" y="379.9" class="st4" width="36.7" height="2.1"/>
<rect x="171.1" y="387.6" class="st2" width="56.8" height="2.1"/>
<rect x="171.1" y="394.9" class="st4" width="44.6" height="2.1"/>
<rect x="171.1" y="402.1" class="st4" width="26.2" height="2.1"/>
<rect x="171.1" y="409.4" class="st4" width="39.3" height="2.1"/>
<rect x="154.5" y="379.3" class="st4" width="4.2" height="4.2"/>
<rect x="154.5" y="386.6" class="st2" width="4.2" height="4.2"/>
<rect x="154.5" y="393.8" class="st4" width="4.2" height="4.2"/>
<rect x="154.5" y="401.1" class="st4" width="4.2" height="4.2"/>
<rect x="154.5" y="408.4" class="st4" width="4.2" height="4.2"/>
<rect x="172.8" y="307.9" class="st4" width="37" height="37"/>
<path class="st4" d="M748.1,271.1v186c0,8.1-6.6,14.7-14.7,14.7h-72.3c-8.1,0-14.7-6.6-14.7-14.7v-186c0-8.1,6.6-14.7,14.7-14.7h8.8
	c-1.5,3.6,0.3,7.6,3.8,9.1c0.8,0.3,1.7,0.5,2.6,0.5h41.2c3.9,0,7-3.1,7-7c0-0.9-0.2-1.8-0.5-2.6h9.4
	C741.6,256.4,748.1,263,748.1,271.1z"/>
<rect x="651.3" y="291.9" class="st3" width="92" height="128"/>
<rect x="677.4" y="379.9" class="st4" width="36.7" height="2.1"/>
<rect x="677.4" y="387.6" class="st2" width="56.8" height="2.1"/>
<rect x="677.4" y="394.9" class="st4" width="44.6" height="2.1"/>
<rect x="677.4" y="402.1" class="st4" width="26.2" height="2.1"/>
<rect x="677.4" y="409.4" class="st4" width="39.3" height="2.1"/>
<rect x="660.8" y="379.3" class="st4" width="4.2" height="4.2"/>
<rect x="660.8" y="386.6" class="st2" width="4.2" height="4.2"/>
<rect x="660.8" y="393.8" class="st4" width="4.2" height="4.2"/>
<rect x="660.8" y="401.1" class="st4" width="4.2" height="4.2"/>
<rect x="660.8" y="408.4" class="st4" width="4.2" height="4.2"/>
<rect x="679" y="307.9" class="st4" width="37" height="37"/>
<rect x="321.1" y="0.1" class="st4" width="245.9" height="157.5"/>
<rect x="339.6" y="44.2" class="st3" width="203.9" height="77"/>
<rect x="376.8" y="57.5" class="st4" width="48.9" height="2.8"/>
<rect x="376.7" y="67.8" class="st2" width="75.7" height="2.8"/>
<rect x="376.7" y="77.5" class="st4" width="59.4" height="2.8"/>
<rect x="376.7" y="87.2" class="st4" width="34.9" height="2.8"/>
<rect x="376.7" y="96.8" class="st4" width="52.4" height="2.8"/>
<rect x="354.6" y="56.7" class="st4" width="5.6" height="5.6"/>
<rect x="354.6" y="66.4" class="st2" width="5.6" height="5.6"/>
<rect x="354.6" y="76.1" class="st4" width="5.6" height="5.6"/>
<rect x="354.6" y="85.8" class="st4" width="5.6" height="5.6"/>
<rect x="354.6" y="95.4" class="st4" width="5.6" height="5.6"/>
<rect x="483.4" y="53.8" class="st4" width="50.1" height="50.1"/>
<rect x="321" class="st2" width="245.9" height="10.4"/>
<circle class="st3" cx="328.8" cy="5.3" r="2.1"/>
<circle class="st3" cx="336.1" cy="5.3" r="2.1"/>
<circle class="st3" cx="343.5" cy="5.3" r="2.1"/>
<linearGradient id="SVGID_1_" gradientUnits="userSpaceOnUse" x1="509.567" y1="612.1263" x2="509.567" y2="635.8708" gradientTransform="matrix(1 0 0 -1 0 710)">
	<stop  offset="0" style="stop-color:#808080;stop-opacity:0.25"/>
	<stop  offset="0.54" style="stop-color:#808080;stop-opacity:0.12"/>
	<stop  offset="1" style="stop-color:#808080;stop-opacity:0.1"/>
</linearGradient>
<rect x="495.1" y="74.1" class="st5" width="28.9" height="23.7"/>
<linearGradient id="SVGID_2_" gradientUnits="userSpaceOnUse" x1="662.0382" y1="443.2141" x2="662.0382" y2="458.7334" gradientTransform="matrix(1 0 0 -1 -152.16 518.74)">
	<stop  offset="0" style="stop-color:#808080;stop-opacity:0.25"/>
	<stop  offset="0.54" style="stop-color:#808080;stop-opacity:0.12"/>
	<stop  offset="1" style="stop-color:#808080;stop-opacity:0.1"/>
</linearGradient>
<path class="st6" d="M501.8,70.4c0-4.5,3.6-8.1,8.1-8.1c4.5,0,8.1,3.6,8.1,8.1v5.2h2.3v-5.2c0.1-5.7-4.5-10.4-10.2-10.5
	c-5.7-0.1-10.4,4.5-10.5,10.2c0,0.1,0,0.2,0,0.3v5.2h2.3V70.4z"/>
<path class="st3" d="M502.1,70.2c0-4.3,3.5-7.8,7.8-7.8c4.3,0,7.8,3.5,7.8,7.8v5h2.2v-5c0-5.5-4.4-9.9-9.9-9.9
	c-5.5,0-9.9,4.4-9.9,9.9v5h2.2V70.2z"/>
<rect x="496.4" y="74.9" class="st7" width="27" height="22"/>
<rect x="496.4" y="74.9" class="st3" width="27" height="22"/>
<rect x="496.4" y="79.3" class="st2" width="27" height="13.3"/>
<path class="st8" d="M511.6,83.8c0-0.9-0.8-1.7-1.7-1.7s-1.7,0.8-1.7,1.7c0,0.4,0.2,0.9,0.5,1.2v3.6c0,0.7,0.6,1.2,1.2,1.2
	c0.7,0,1.2-0.6,1.2-1.2v-3.6C511.4,84.6,511.6,84.2,511.6,83.8z"/>
<linearGradient id="SVGID_3_" gradientUnits="userSpaceOnUse" x1="697.4986" y1="368.5355" x2="697.4986" y2="387.3539" gradientTransform="matrix(1 0 0 -1 0 710)">
	<stop  offset="0" style="stop-color:#808080;stop-opacity:0.25"/>
	<stop  offset="0.54" style="stop-color:#808080;stop-opacity:0.12"/>
	<stop  offset="1" style="stop-color:#808080;stop-opacity:0.1"/>
</linearGradient>
<rect x="686.1" y="322.6" class="st9" width="22.9" height="18.8"/>
<linearGradient id="SVGID_4_" gradientUnits="userSpaceOnUse" x1="849.9052" y1="194.987" x2="849.9052" y2="207.2865" gradientTransform="matrix(1 0 0 -1 -152.16 518.74)">
	<stop  offset="0" style="stop-color:#808080;stop-opacity:0.25"/>
	<stop  offset="0.54" style="stop-color:#808080;stop-opacity:0.12"/>
	<stop  offset="1" style="stop-color:#808080;stop-opacity:0.1"/>
</linearGradient>
<path class="st10" d="M691.3,319.7c0-3.5,2.9-6.4,6.4-6.4s6.4,2.9,6.4,6.4v4.1h1.8v-4.1c0.1-4.5-3.6-8.2-8.1-8.3
	c-4.5-0.1-8.2,3.6-8.3,8.1c0,0.1,0,0.1,0,0.2v4.1h1.8V319.7z"/>
<path class="st3" d="M691.6,319.6c0-3.4,2.8-6.1,6.1-6.1s6.1,2.8,6.1,6.1v3.9h1.7v-3.9c0-4.3-3.5-7.9-7.9-7.9
	c-4.3,0-7.9,3.5-7.9,7.9v3.9h1.7V319.6z"/>
<rect x="687" y="323.3" class="st7" width="21.4" height="17.5"/>
<rect x="687" y="323.3" class="st3" width="21.4" height="17.5"/>
<rect x="687" y="326.7" class="st2" width="21.4" height="10.6"/>
<path class="st8" d="M699.1,330.3c0-0.7-0.6-1.4-1.4-1.4c-0.7,0-1.4,0.6-1.4,1.4c0,0.3,0.1,0.7,0.4,0.9v2.9c0,0.5,0.4,1,1,1
	c0.5,0,1-0.4,1-1v-2.9C699,330.9,699.1,330.6,699.1,330.3z"/>
<linearGradient id="SVGID_5_" gradientUnits="userSpaceOnUse" x1="191.2496" y1="368.5355" x2="191.2496" y2="387.3539" gradientTransform="matrix(1 0 0 -1 0 710)">
	<stop  offset="0" style="stop-color:#808080;stop-opacity:0.25"/>
	<stop  offset="0.54" style="stop-color:#808080;stop-opacity:0.12"/>
	<stop  offset="1" style="stop-color:#808080;stop-opacity:0.1"/>
</linearGradient>
<rect x="179.8" y="322.6" class="st11" width="22.9" height="18.8"/>
<linearGradient id="SVGID_6_" gradientUnits="userSpaceOnUse" x1="343.6562" y1="194.987" x2="343.6562" y2="207.2865" gradientTransform="matrix(1 0 0 -1 -152.16 518.74)">
	<stop  offset="0" style="stop-color:#808080;stop-opacity:0.25"/>
	<stop  offset="0.54" style="stop-color:#808080;stop-opacity:0.12"/>
	<stop  offset="1" style="stop-color:#808080;stop-opacity:0.1"/>
</linearGradient>
<path class="st12" d="M185.1,319.7c0-3.5,2.9-6.4,6.4-6.4c3.5,0,6.4,2.9,6.4,6.4v4.1h1.8v-4.1c0.1-4.5-3.6-8.2-8.1-8.3
	c-4.5-0.1-8.2,3.6-8.3,8.1c0,0.1,0,0.1,0,0.2v4.1h1.8V319.7z"/>
<path class="st3" d="M185.3,319.6c0-3.4,2.8-6.1,6.1-6.1s6.1,2.8,6.1,6.1v3.9h1.7v-3.9c0-4.3-3.5-7.9-7.9-7.9s-7.9,3.5-7.9,7.9v3.9
	h1.7V319.6z"/>
<rect x="180.8" y="323.3" class="st7" width="21.4" height="17.5"/>
<rect x="180.8" y="323.3" class="st3" width="21.4" height="17.5"/>
<rect x="180.8" y="326.7" class="st2" width="21.4" height="10.6"/>
<path class="st8" d="M192.8,330.3c0-0.7-0.6-1.4-1.4-1.4c-0.7,0-1.4,0.6-1.4,1.4c0,0.3,0.1,0.7,0.4,0.9v2.9c0,0.5,0.4,1,1,1
	s1-0.4,1-1v-2.9C192.7,330.9,192.8,330.6,192.8,330.3z"/>
</svg>
